# xmcd
#
# Track frame offsets:
#	150
#	14980
#	30281
#	40358
#	55858
#	68779
#	82868
#	94616
#	109287
#	121335
#	134846
#	148919
#
# Disc length: 2129 seconds
#
# Revision: 0
# Processed by: cddbd v1.5.2PL0 Copyright (c) Steve Scherf et al.
# Submitted via: audiograbber 1.83.01
#
DISCID=ab084f0c
DTITLE=Ann-Christine Bärnsten - Ann-Christine Bärnsten
DYEAR=1976
DGENRE=Country
TTITLE0=Du mamma du pappa
TTITLE1=Kära nån
TTITLE2=What a man my man is
TTITLE3=Desperado
TTITLE4=Jamestown Ferry
TTITLE5=De e så enkelt att lova
TTITLE6=Så blev mitt liv förändrat
TTITLE7=Jolene
TTITLE8=Vän med kärleken
TTITLE9=När jag hör hans namn
TTITLE10=If you love me let me know
TTITLE11=The yesterday has passed away
EXTD=Only available on LP
EXTT0=
EXTT1=
EXTT2=
EXTT3=
EXTT4=
EXTT5=
EXTT6=
EXTT7=
EXTT8=
EXTT9=
EXTT10=
EXTT11=
PLAYORDER=
